 <svg width="212" height="238" viewBox="0 0 212 238" fill="none" xmlns="http://www.w3.org/2000/svg">
<path d="M129.719 222.715C125.869 218.82 122.034 214.893 118.675 210.557C119.123 211.137 119.57 211.717 120.018 212.297C117.507 209.037 115.381 205.54 113.503 201.881C111.581 198.135 109.885 194.278 108.075 190.478C104.473 182.911 100.207 175.646 94.3996 169.536C91.3253 166.3 87.743 163.514 83.9927 161.107C80.1312 158.628 75.9509 156.669 71.6529 155.073C69.8377 154.399 67.9807 153.831 66.0938 153.396C65.1504 153.177 64.1994 152.992 63.2431 152.842C61.6236 152.59 59.9774 152.321 58.3344 152.242C57.4872 152.2 56.6411 152.213 55.7982 152.31C54.5467 152.453 53.1454 152.545 51.9324 153.003C51.2553 153.259 50.1139 153.659 49.3598 154.15C48.7865 154.523 47.9735 155.14 47.474 155.607C47.398 155.679 47.3296 155.751 47.259 155.827C45.4747 157.743 44.573 160.03 44.4885 162.642C44.3933 165.595 46.0481 168.811 48.3019 170.672C49.393 171.573 50.5204 172.473 51.7655 173.157C53.001 173.836 54.3605 174.346 55.6516 174.881C58.1301 175.908 60.7144 176.678 63.3351 177.247C69.7243 178.634 76.4173 179.192 82.9348 178.526C86.5621 178.156 90.2 177.615 93.7032 176.579C95.773 175.967 97.7412 175.146 99.7276 174.302C100.995 173.764 102.234 173.163 103.428 172.475C105.243 171.428 106.878 170.163 108.525 168.868C109.576 168.042 110.566 167.136 111.472 166.152C114.672 162.683 117.056 158.706 118.452 154.185C119.16 151.891 119.481 149.453 119.685 147.072C119.83 145.362 119.798 143.64 119.62 141.934C119.181 137.696 118.337 133.63 116.697 129.692C115.095 125.844 113.249 122.197 110.95 118.717C108.626 115.201 106.014 111.847 103.232 108.683C97.9808 102.713 91.9158 97.5682 85.5373 92.8455C79.7621 88.569 73.6051 84.8028 67.187 81.5705C59.9582 77.9305 52.3549 74.8534 44.4628 72.9992C40.1488 71.986 35.6947 71.2851 31.2662 71.0958C29.5195 71.0209 27.7652 71.0476 26.0248 71.2209C23.6084 71.4628 21.1696 71.7249 18.904 72.645C17.5733 73.1854 16.1207 73.6989 14.9259 74.5367C13.0903 75.8217 11.827 76.9462 10.598 78.8346C9.93156 79.8586 9.43202 81.1447 9.20739 82.3719C8.77524 84.7268 8.79664 86.0546 9.21381 88.4128C9.43202 89.6496 10.0343 90.8447 10.5488 91.9617C10.8119 92.5331 11.1531 93.0627 11.5297 93.5656C12.8165 95.2882 14.083 96.8289 15.7538 98.1706C18.6633 100.508 21.698 102.504 25.0386 104.163C28.775 106.019 32.69 107.572 36.651 108.88C44.2339 111.382 52.1057 112.939 60.0084 114.008C69.0344 115.229 78.0934 116.002 87.2049 116.138C94.7216 116.249 102.265 115.974 109.733 115.087C115.862 114.36 121.983 113.407 127.906 111.634C131.112 110.674 134.231 109.444 137.272 108.049C139.517 107.02 141.687 105.809 143.686 104.354C146.132 102.573 148.517 100.683 150.406 98.3001C151.548 96.8599 152.696 95.4187 153.598 93.8127C154.506 92.1939 155.231 90.451 155.852 88.7059C156.257 87.5718 156.556 86.4013 156.756 85.2147C157.089 83.2374 157.366 81.2174 157.378 79.2059C157.391 77.0671 157.089 74.9572 156.787 72.844C156.557 71.2391 156.125 69.6727 155.632 68.1299C154.43 64.3744 152.818 60.6959 150.887 57.2561C148.912 53.7392 146.516 50.5026 144 47.357C139.678 41.9506 134.574 37.1926 129.124 32.9428C123.167 28.2981 116.956 24.0772 110.356 20.3956C103.905 16.7963 97.1123 13.8058 90.2139 11.177C83.4921 8.61445 76.6002 6.49062 69.6066 4.80332C61.8697 2.93735 53.9862 1.63095 46.0652 0.86594C39.2225 0.204717 32.306 0.0452958 25.4547 0.68833C23.1389 0.905528 20.8294 1.2126 18.5307 1.56461C17.0856 1.78609 15.6522 2.03539 14.2445 2.43447C13.5845 2.62171 12.9309 2.82928 12.2881 3.07002C10.9702 3.5654 9.63847 4.09074 8.39551 4.75838C7.21138 5.39393 6.13635 6.26379 5.11909 7.12616C4.12536 7.96928 3.26855 9.08415 2.63317 10.2001C2.55722 10.3328 2.49411 10.4697 2.431 10.6077C2.08763 11.361 1.72715 12.141 1.46401 12.9284C1.1292 13.9299 1.06609 15.0341 0.981586 16.0698C0.886385 17.2339 1.11316 18.5135 1.47792 19.6423C2.2791 22.1192 3.36375 23.7348 5.00892 25.7164C6.17058 27.1159 7.69273 28.1954 9.12824 29.2836C10.1658 30.07 11.2633 30.7708 12.395 31.4149C15.5089 33.1888 18.8484 34.5787 22.1719 35.9022C24.7091 36.9133 27.2881 37.8163 29.8853 38.6595C36.0712 40.6677 42.4315 42.1913 48.7833 43.5758C56.0335 45.1561 63.3458 46.4529 70.6956 47.4768C78.9888 48.6324 87.3076 49.5504 95.6682 50.0404C103.228 50.4844 110.808 50.615 118.376 50.355C126.356 50.0811 134.3 49.3171 142.194 48.1156C149.403 47.0189 156.556 45.4332 163.466 43.0837C171.702 40.2836 179.667 36.6169 187.3 32.4581C194.09 28.7582 200.65 24.6561 207.137 20.4523C209.005 19.2422 210.485 17.4971 211.086 15.3155C211.445 14.1728 211.496 13.0312 211.24 11.8885C211.188 10.7447 210.849 9.67904 210.221 8.69256C209.038 6.85761 207.277 5.242 205.085 4.74233C202.889 4.2416 200.412 4.34646 198.464 5.60899C190.061 11.0561 181.524 16.3373 172.54 20.7829C170.01 22.0347 167.446 23.2181 164.846 24.319C165.531 24.0302 166.214 23.7413 166.899 23.4524C158.772 26.8815 150.329 29.3114 141.65 30.8724C139.372 31.2822 137.083 31.6364 134.788 31.9456C135.55 31.8429 136.312 31.7412 137.073 31.6385C129.133 32.6977 121.124 33.1963 113.117 33.283C104.839 33.3729 96.5571 33.0241 88.3099 32.319C83.6354 31.9188 78.9716 31.402 74.3218 30.7772C75.0834 30.8799 75.845 30.9816 76.6055 31.0843C68.9466 30.0507 61.3263 28.7261 53.7722 27.0902C47.2033 25.6682 40.628 24.0954 34.2346 22.0112C31.1357 21.0001 28.0626 19.9023 25.0578 18.6355C25.7424 18.9244 26.426 19.2133 27.1106 19.5022C23.8513 18.1209 20.5823 16.5641 17.7573 14.405C18.3371 14.8533 18.9168 15.3005 19.4966 15.7488C18.5489 15.017 17.6557 14.2081 16.9208 13.2591C17.369 13.839 17.8161 14.4189 18.2643 14.9988C17.9006 14.5184 17.5851 14.008 17.3466 13.4538C17.6354 14.1386 17.9242 14.8222 18.213 15.507C18.0429 15.0961 17.922 14.6735 17.8589 14.2338C17.9616 14.9956 18.0632 15.7574 18.1659 16.5181C18.1381 16.2923 18.1659 16.058 18.1959 15.8323C18.0932 16.5941 17.9916 17.3559 17.8889 18.1166C17.9392 17.8095 18.0215 17.5174 18.1381 17.2296C17.8493 17.9144 17.5605 18.5981 17.2717 19.2828C17.4118 18.9661 17.5851 18.674 17.7915 18.3969C17.3433 18.9768 16.8962 19.5567 16.448 20.1366C16.7711 19.7236 17.1476 19.3684 17.5616 19.0485C16.9818 19.4968 16.402 19.9441 15.8223 20.3924C16.5593 19.8413 17.3744 19.4166 18.2183 19.0549C17.5338 19.3438 16.8502 19.6327 16.1656 19.9216C18.8355 18.8046 21.6755 18.3199 24.5273 17.9358C23.7657 18.0385 23.0041 18.1401 22.2435 18.2428C29.6596 17.2564 37.189 17.2863 44.634 17.9251C46.8407 18.1145 49.0421 18.3605 51.2371 18.6537C50.4755 18.551 49.7139 18.4493 48.9523 18.3466C60.2406 19.8692 71.3727 22.6382 82.1047 26.4493C85.0249 27.4861 87.9152 28.6052 90.7702 29.8089C90.0856 29.52 89.402 29.2311 88.7175 28.9422C96.8716 32.3907 104.668 36.6159 112.004 41.5761C114.155 43.0302 116.263 44.5495 118.319 46.1362C117.739 45.6879 117.159 45.2407 116.579 44.7923C121.197 48.367 125.564 52.2883 129.444 56.6601C130.519 57.8724 131.555 59.1189 132.547 60.4006C132.099 59.8207 131.652 59.2408 131.204 58.6609C134.129 62.4549 136.655 66.5592 138.527 70.977C138.238 70.2922 137.949 69.6086 137.66 68.9238C138.817 71.6778 139.827 74.587 140.236 77.555C140.134 76.7932 140.032 76.0314 139.929 75.2707C140.237 77.5796 140.292 79.9153 139.986 82.2274C140.089 81.4656 140.19 80.7038 140.293 79.9431C140.043 81.7599 139.57 83.5349 138.859 85.2265C139.147 84.5417 139.436 83.858 139.725 83.1733C139.037 84.7814 138.145 86.2879 137.08 87.6745C137.528 87.0946 137.975 86.5147 138.423 85.9348C137.133 87.5964 135.615 89.059 133.955 90.3483C134.535 89.9 135.115 89.4527 135.694 89.0044C133.136 90.9742 130.281 92.517 127.315 93.7774C127.999 93.4886 128.683 93.1997 129.367 92.9108C124.432 94.994 119.2 96.3228 113.934 97.2558C112.418 97.5244 110.896 97.7587 109.37 97.9641C110.131 97.8614 110.893 97.7598 111.655 97.657C106.185 98.39 100.669 98.7634 95.1548 98.9078C87.8243 99.0993 80.4788 98.8693 73.1708 98.2819C69.5371 97.9898 65.9098 97.611 62.2965 97.1263C63.0581 97.2291 63.8197 97.3307 64.5802 97.4334C56.6475 96.3613 48.7447 94.796 41.1361 92.2763C39.0588 91.5883 37.0061 90.8244 34.9887 89.977C35.6733 90.2659 36.3568 90.5548 37.0414 90.8437C33.3639 89.289 29.7387 87.4198 26.564 84.9815C27.1437 85.4298 27.7235 85.877 28.3032 86.3253C27.132 85.4158 26.0227 84.4187 25.106 83.2481C25.5542 83.8281 26.0013 84.408 26.4495 84.9879C25.996 84.3962 25.5991 83.7671 25.3039 83.0812C25.5927 83.766 25.8815 84.4497 26.1703 85.1345C25.9778 84.6669 25.8387 84.1876 25.7681 83.6858C25.8708 84.4476 25.9724 85.2093 26.0751 85.9701C26.0248 85.5475 26.027 85.1302 26.0837 84.7086C25.981 85.4704 25.8794 86.2322 25.7767 86.9929C25.8398 86.5928 25.9489 86.2097 26.1029 85.8353C25.8141 86.52 25.5253 87.2037 25.2365 87.8885C25.3306 87.6873 25.4429 87.5033 25.5734 87.3246C25.1252 87.9045 24.6781 88.4844 24.2299 89.0644C24.4899 88.7337 24.7926 88.4534 25.1242 88.1956L23.3849 89.5394C24.0245 89.0633 24.7262 88.6952 25.4579 88.3828C24.7733 88.6717 24.0898 88.9606 23.4052 89.2494C24.6268 88.7466 25.905 88.4074 27.2122 88.2234C26.4506 88.3261 25.689 88.4277 24.9284 88.5305C28.5322 88.065 32.1798 88.2148 35.7749 88.6877C35.0133 88.585 34.2517 88.4834 33.4901 88.3807C40.5318 89.3286 47.4141 91.446 53.953 94.1958C53.2684 93.9069 52.5849 93.618 51.9003 93.3291C59.3367 96.4726 66.4554 100.463 73.1184 105.016C75.0566 106.341 76.9564 107.722 78.8155 109.157C78.2357 108.708 77.6559 108.261 77.0762 107.813C82.0791 111.687 86.7846 115.963 90.9755 120.709C92.1308 122.016 93.2433 123.36 94.3129 124.738C93.8647 124.158 93.4176 123.578 92.9694 122.999C96.1153 127.072 98.9553 131.485 100.968 136.236C100.68 135.551 100.391 134.867 100.102 134.183C101.328 137.109 102.215 140.17 102.644 143.316C102.541 142.554 102.439 141.792 102.337 141.031C102.649 143.411 102.692 145.815 102.386 148.198C102.488 147.436 102.59 146.674 102.693 145.912C102.432 147.839 101.944 149.72 101.201 151.519C101.489 150.834 101.778 150.15 102.067 149.466C101.357 151.147 100.433 152.705 99.3233 154.152C99.7715 153.572 100.219 152.992 100.667 152.412C99.3672 154.088 97.8525 155.575 96.1774 156.872C96.7571 156.424 97.3369 155.976 97.9167 155.528C95.8158 157.137 93.4989 158.431 91.0633 159.459C91.7478 159.17 92.4314 158.881 93.116 158.592C89.6727 160.031 86.0315 160.938 82.339 161.444C83.1006 161.341 83.8622 161.239 84.6227 161.137C79.7461 161.791 74.7849 161.759 69.9083 161.111C70.6699 161.214 71.4315 161.315 72.192 161.418C68.0214 160.853 63.8914 159.844 60.0052 158.211C60.6898 158.5 61.3733 158.789 62.0579 159.078C60.9465 158.607 59.8737 158.057 58.9109 157.323C59.4907 157.772 60.0705 158.219 60.6502 158.667C60.2855 158.38 59.9443 158.07 59.6533 157.707C60.1015 158.287 60.5486 158.867 60.9968 159.447C60.8481 159.251 60.7198 159.048 60.6235 158.821C60.9123 159.506 61.2011 160.19 61.4899 160.874C61.4407 160.746 61.4054 160.619 61.3851 160.483L61.6921 162.767C61.6814 162.663 61.6814 162.563 61.6921 162.459C61.5894 163.221 61.4878 163.983 61.3851 164.744C61.4022 164.644 61.4279 164.55 61.4664 164.456C61.1776 165.14 60.8888 165.824 60.6 166.509C60.6449 166.412 60.6984 166.327 60.7615 166.241C60.3133 166.821 59.8662 167.401 59.418 167.981C59.5078 167.873 59.6073 167.779 59.7186 167.692C59.1388 168.14 58.559 168.588 57.9793 169.036C58.1611 168.904 58.3547 168.801 58.5601 168.711C57.8755 169 57.192 169.288 56.5074 169.577C56.9941 169.379 57.5043 169.271 58.022 169.199C57.2604 169.301 56.4988 169.403 55.7383 169.506C57.2401 169.316 58.7558 169.419 60.2512 169.619C59.4896 169.516 58.728 169.415 57.9675 169.312C61.7969 169.842 65.5194 170.945 69.0814 172.435C68.3968 172.146 67.7133 171.857 67.0287 171.569C71.3941 173.414 75.508 175.83 79.2615 178.723C78.6818 178.275 78.102 177.828 77.5222 177.379C80.5494 179.753 83.2183 182.534 85.5769 185.569C85.1287 184.989 84.6816 184.409 84.2334 183.829C88.8715 189.838 92.1115 196.68 95.2906 203.531C96.9871 207.187 98.7018 210.841 100.723 214.33C103.007 218.27 105.765 221.921 108.703 225.394C111.499 228.698 114.532 231.79 117.573 234.867C119.117 236.429 121.459 237.385 123.649 237.385C124.832 237.43 125.936 237.183 126.959 236.644C128.025 236.298 128.947 235.705 129.725 234.867C131.227 233.229 132.344 231.079 132.242 228.79C132.139 226.502 131.363 224.37 129.725 222.713" fill="#EE3A24"/>
</svg>
