<svg width="184" height="78" viewBox="0 0 184 78" fill="none" xmlns="http://www.w3.org/2000/svg">
<path d="M194.615 39.8068C184.297 51.9244 171.539 63.2727 155.593 66.7337C143.954 69.2855 130.852 67.162 121.521 59.4915C119.5 57.8195 117.704 55.8928 116.211 53.7477C116.029 53.4844 115.717 53.0257 115.553 52.7776C114.94 51.8211 114.417 50.8038 113.988 49.752C113.156 47.6853 112.66 45.4754 112.765 43.2462C112.9 40.8161 113.786 38.6902 115.716 37.1526C118.993 34.5961 123.753 35.3853 127.108 37.5232C128.529 38.4301 129.785 39.6003 130.84 40.9154C133.851 44.7366 135.013 49.9265 134.077 54.6858C133.142 59.4875 130.022 63.6625 125.949 66.3175C121.642 69.095 116.617 70.4437 111.549 71.024C107.895 71.4298 104.198 71.4482 100.535 71.1537C100.211 71.1176 98.8516 71.012 98.5651 70.9688C97.7166 70.8591 96.6649 70.7462 95.8196 70.6006C80.9655 68.3194 66.9621 61.0243 56.423 50.3563C54.7981 48.7243 53.1733 46.8697 51.7205 45.0824C51.2042 44.4068 50.3118 43.2894 49.8259 42.5851C49.1095 41.6118 48.2683 40.3791 47.6216 39.3586C43.9877 33.618 40.6107 26.4126 41.5832 19.489C42.5413 12.791 48.4988 7.77482 55.3184 9.69422C57.53 10.357 59.4798 11.7425 60.7965 13.6427C62.3909 15.9471 63.0657 18.9015 62.5998 21.6701C62.4662 22.5017 62.2132 23.323 61.8722 24.093C60.8389 26.455 59.1676 28.324 56.8472 29.5382C52.2784 31.9147 46.5082 31.8386 41.4519 30.9486C24.5743 28.0607 8.86844 20.2125 -5.05006 10.2697L-11.6599 19.7811C3.75296 30.229 21.2726 38.3701 39.8703 41.0571C45.8382 41.9527 52.0623 41.8343 57.8173 39.7884C63.2049 37.9146 67.8394 33.9742 70.195 28.7274C71.739 25.4593 72.3521 21.8038 71.9671 18.2099C70.7793 6.61821 60.1049 -1.53246 48.6053 1.00727C40.6627 2.79621 34.9157 9.54054 33.611 17.4575C33.3533 19.0863 33.2596 20.7456 33.3229 22.3889C33.5822 29.1884 36.3645 35.5718 39.8495 41.2916C40.0904 41.7118 40.5354 42.3634 40.8068 42.7812C41.3263 43.604 42.2187 44.8543 42.7958 45.6611C43.2609 46.3022 43.8876 47.113 44.3719 47.7478C57.8205 64.876 78.7979 75.9762 100.574 77.0567C110.218 77.4738 120.713 76.1595 128.858 70.6062C137.343 64.7631 141.28 54.4649 137.83 44.5925C135.815 38.7479 131.037 33.73 124.993 32.0964C121.07 30.9918 116.639 31.4648 113.405 34.0878C111.858 35.3365 110.647 37.0069 109.949 38.8679C109.523 39.9941 109.28 41.1995 109.182 42.3986C109.175 42.5443 109.151 42.9533 109.146 43.1061C109.146 43.2638 109.142 43.6576 109.143 43.8097C109.151 43.9666 109.163 44.3484 109.172 44.5085C109.408 47.9759 110.651 51.3353 112.518 54.2456C121.67 68.2121 140.505 72.7673 156.091 68.8444C172.302 64.9136 185.125 53.0578 195.34 40.4079L194.615 39.806" fill="#0050B4"/>
</svg>
